<svg style="position: absolute; width: 0; height: 0; overflow: hidden;" version="1.1" xmlns="http://www.w3.org/2000/svg" xmlns:xlink="http://www.w3.org/1999/xlink">
<defs>
<symbol id="icon-jingshu" viewBox="0 0 32 32">
<title>jingshu</title>
<path fill="none" stroke="#c6c6c6" stroke-width="1" stroke-miterlimit="10" stroke-linecap="butt" stroke-linejoin="miter" style="stroke: var(--color1, #c6c6c6)" d="M20.71 16.738h-9.404l1.32-3.3h6.764l1.32 3.3zM20.71 16.738"></path>
<path fill="none" stroke="#c6c6c6" stroke-width="1" stroke-miterlimit="10" stroke-linecap="butt" stroke-linejoin="miter" style="stroke: var(--color1, #c6c6c6)" d="M15.542 21.22h-9.406l1.32-3.3h6.764l1.322 3.3zM15.542 21.22"></path>
<path fill="none" stroke="#c6c6c6" stroke-width="1" stroke-miterlimit="10" stroke-linecap="butt" stroke-linejoin="miter" style="stroke: var(--color1, #c6c6c6)" d="M25.878 21.22h-9.402l1.32-3.3h6.764l1.318 3.3zM25.878 21.22"></path>
<path fill="none" stroke="#c6c6c6" stroke-width="1" stroke-miterlimit="10" stroke-linecap="butt" stroke-linejoin="miter" style="stroke: var(--color1, #c6c6c6)" d="M20.834 25.702h-9.404l1.32-3.298h6.766l1.318 3.298zM20.834 25.702"></path>
<path fill="none" stroke="#c6c6c6" stroke-width="1" stroke-miterlimit="10" stroke-linecap="butt" stroke-linejoin="miter" style="stroke: var(--color1, #c6c6c6)" d="M10.536 25.702h-9.404l1.32-3.298h6.764l1.32 3.298zM10.536 25.702"></path>
<path fill="none" stroke="#c6c6c6" stroke-width="1" stroke-miterlimit="10" stroke-linecap="butt" stroke-linejoin="miter" style="stroke: var(--color1, #c6c6c6)" d="M31.132 25.702h-9.404l1.318-3.298h6.766l1.32 3.298zM31.132 25.702"></path>
<path fill="none" stroke="#c6c6c6" stroke-width="1" stroke-miterlimit="10" stroke-linecap="butt" stroke-linejoin="miter" style="stroke: var(--color1, #c6c6c6)" d="M9.266 10.982c-0.028-0.034-0.074-0.050-0.116-0.040l-1.568 0.358-1.186-1.090c-0.032-0.030-0.080-0.038-0.122-0.022-0.040 0.018-0.068 0.054-0.072 0.1l-0.146 1.602-1.4 0.79c-0.040 0.022-0.062 0.064-0.060 0.108s0.030 0.084 0.072 0.102l1.48 0.63 0.318 1.578c0.008 0.044 0.042 0.080 0.084 0.090 0.024 0.006 0.048 0.004 0.072-0.004 0.016-0.006 0.034-0.018 0.044-0.032l1.060-1.212 1.598 0.184c0.044 0.006 0.088-0.014 0.112-0.052s0.024-0.084 0.002-0.124l-0.826-1.38 0.67-1.464c0.018-0.040 0.012-0.088-0.016-0.122v0zM9.266 10.982"></path>
<path fill="none" stroke="#c6c6c6" stroke-width="1" stroke-miterlimit="10" stroke-linecap="butt" stroke-linejoin="miter" style="stroke: var(--color1, #c6c6c6)" d="M12.986 8.748c-0.016-0.020-0.044-0.030-0.070-0.024l-0.948 0.216-0.714-0.656c-0.018-0.018-0.046-0.024-0.072-0.014-0.024 0.010-0.042 0.032-0.044 0.060l-0.088 0.966-0.844 0.476c-0.024 0.014-0.038 0.040-0.036 0.066 0 0.028 0.018 0.050 0.042 0.062l0.892 0.38 0.192 0.952c0.006 0.026 0.026 0.048 0.052 0.054 0.014 0.004 0.030 0.002 0.042-0.002 0.010-0.004 0.020-0.010 0.028-0.020l0.638-0.732 0.964 0.11c0.028 0.004 0.054-0.008 0.068-0.032 0.014-0.020 0.014-0.050 0.002-0.072l-0.498-0.832 0.402-0.884c0.012-0.024 0.008-0.052-0.008-0.074v0zM12.986 8.748"></path>
<path fill="none" stroke="#c6c6c6" stroke-width="1" stroke-miterlimit="10" stroke-linecap="butt" stroke-linejoin="miter" style="stroke: var(--color1, #c6c6c6)" d="M22.068 11.55c-0.008-0.012-0.026-0.018-0.042-0.014l-0.588 0.134-0.446-0.408c-0.012-0.012-0.030-0.014-0.042-0.010-0.018 0.006-0.028 0.022-0.030 0.038l-0.054 0.602-0.526 0.296c-0.014 0.008-0.024 0.024-0.022 0.042 0 0.016 0.012 0.032 0.026 0.038l0.554 0.238 0.12 0.592c0.004 0.016 0.018 0.030 0.034 0.034 0.010 0.002 0.018 0.002 0.028-0.002 0.006-0.002 0.014-0.006 0.018-0.012l0.396-0.456 0.6 0.068c0.018 0.002 0.032-0.004 0.042-0.018s0.010-0.032 0.002-0.046l-0.31-0.518 0.252-0.548c0.004-0.018 0-0.036-0.012-0.050v0zM22.068 11.55"></path>
<path fill="none" stroke="#c6c6c6" stroke-width="1" stroke-miterlimit="10" stroke-linecap="butt" stroke-linejoin="miter" style="stroke: var(--color1, #c6c6c6)" d="M26.65 14.37c-0.018-0.028-0.050-0.042-0.082-0.040l-1.174 0.14-0.782-0.888c-0.022-0.026-0.054-0.036-0.086-0.026-0.032 0.008-0.054 0.034-0.060 0.066l-0.23 1.16-1.086 0.466c-0.032 0.014-0.048 0.042-0.052 0.076 0 0.032 0.018 0.062 0.044 0.080l1.032 0.578 0.112 1.176c0.002 0.032 0.024 0.060 0.054 0.072 0.014 0.008 0.036 0.008 0.050 0.004 0.016-0.004 0.026-0.010 0.038-0.020l0.868-0.802 1.152 0.258c0.032 0.008 0.064-0.004 0.086-0.030 0.020-0.026 0.024-0.060 0.012-0.090l-0.496-1.072 0.602-1.016c0.016-0.032 0.014-0.066-0.002-0.092v0zM26.65 14.37"></path>
</symbol>
<symbol id="icon-shichai" viewBox="0 0 32 32">
<title>shichai</title>
<path fill="none" stroke="#c6c6c6" stroke-width="1" stroke-miterlimit="10" stroke-linecap="round" stroke-linejoin="round" style="stroke: var(--color1, #c6c6c6)" d="M12.784 13.702l4.088 2.044c0.336-0.286 0.694-0.546 1.070-0.778l-4.086-2.336c0.554-0.93-0.134-2.26-1.072-3.214-0.228-0.232-0.84-0.866-1.070-1.072h1.070l1.072-3.214v-3.214h-5.358v3.214l1.072 3.214h1.070c0.092 0.578 0.504 1.69 1.072 2.142-0.054-0.052 0.354 0.286 0 0 2.394 2.688-3.876 3.294-2.142 0-0.734 0.026-1.492 1.24-1.072 2.142l-7.498 4.286v10.712h14.734c-1.176-1.468-1.878-3.328-1.878-5.356v4.286h-1.072v-8.57h1.072v4.286c0-2.028 0.704-3.89 1.878-5.356h-12.592l6.426-3.214c1.54 1.014 3.216-0.002 3.216-0.002zM10.64 17.988h1.072v8.572h-1.072v-8.572zM8.498 17.988h1.072v8.572h-1.072v-8.572zM6.356 17.988h1.072v8.572h-1.072v-8.572zM4.214 17.988h1.070v8.572h-1.070v-8.572zM3.142 26.558h-1.070v-8.57h1.072v8.57z"></path>
<path fill="none" stroke="#c6c6c6" stroke-width="1" stroke-miterlimit="10" stroke-linecap="round" stroke-linejoin="round" style="stroke: var(--color1, #c6c6c6)" d="M30.606 28.54l-2.654-2.66c-0.044-0.046-0.096-0.078-0.14-0.118 0.654-1.008 1.038-2.204 1.038-3.496 0-3.55-2.874-6.424-6.426-6.424-3.544 0-6.424 2.874-6.424 6.424 0 3.546 2.878 6.422 6.424 6.422 1.292 0 2.494-0.382 3.5-1.040 0.040 0.046 0.072 0.098 0.116 0.14l2.654 2.66c0.266 0.266 0.612 0.394 0.958 0.394s0.692-0.128 0.956-0.394c0.524-0.526 0.524-1.382-0.002-1.908zM22.422 26.66c-2.422 0-4.394-1.972-4.394-4.394s1.972-4.398 4.394-4.398c2.424 0 4.396 1.976 4.396 4.398s-1.972 4.394-4.396 4.394z"></path>
</symbol>
<symbol id="icon-mengchuang" viewBox="0 0 32 32">
<title>mengchuang</title>
<path fill="none" stroke="#c6c6c6" stroke-width="1" stroke-miterlimit="10" stroke-linecap="round" stroke-linejoin="round" style="stroke: var(--color1, #c6c6c6)" d="M28.608 29.418c0-0.222-0.226-0.45-0.452-0.45h-0.374v-25.35h0.374c0.224 0 0.452-0.226 0.452-0.45v-1.5c0-0.15-0.226-0.376-0.452-0.376h-24.6c-0.224 0-0.45 0.226-0.45 0.45v1.5c0 0.224 0.226 0.45 0.45 0.45h0.376v25.35h-0.376c-0.224 0-0.45 0.226-0.45 0.45v1.5c0 0.078 0.226 0.3 0.45 0.3h24.6c0.224 0 0.452-0.222 0.452-0.45v-1.424z"></path>
<path fill="none" stroke="#c6c6c6" stroke-width="1" stroke-miterlimit="10" stroke-linecap="round" stroke-linejoin="round" style="stroke: var(--color1, #c6c6c6)" d="M6.332 4.892h19.050v22.802h-19.050v-22.802z"></path>
<path fill="none" stroke="#c6c6c6" stroke-width="1" stroke-miterlimit="10" stroke-linecap="round" stroke-linejoin="round" style="stroke: var(--color1, #c6c6c6)" d="M10.908 14.268h4.2v4.202h-4.2v-4.202z"></path>
<path fill="none" stroke="#c6c6c6" stroke-width="1" stroke-miterlimit="10" stroke-linecap="round" stroke-linejoin="round" style="stroke: var(--color1, #c6c6c6)" d="M10.908 9.018h4.2v4.126h-4.2v-4.126z"></path>
<path fill="none" stroke="#c6c6c6" stroke-width="1" stroke-miterlimit="10" stroke-linecap="round" stroke-linejoin="round" style="stroke: var(--color1, #c6c6c6)" d="M16.232 14.268h4.126v4.202h-4.126v-4.202z"></path>
<path fill="none" stroke="#c6c6c6" stroke-width="1" stroke-miterlimit="10" stroke-linecap="round" stroke-linejoin="round" style="stroke: var(--color1, #c6c6c6)" d="M16.232 9.018h4.126v4.126h-4.126v-4.126z"></path>
<path fill="none" stroke="#c6c6c6" stroke-width="1" stroke-miterlimit="10" stroke-linecap="round" stroke-linejoin="round" style="stroke: var(--color1, #c6c6c6)" d="M21.182 22.46c-0.6 0-1.124-0.524-1.124-1.126s0.524-1.126 1.124-1.126c0.602 0 1.126 0.524 1.126 1.126-0.002 0.678-0.524 1.126-1.126 1.126v0z"></path>
</symbol>
<symbol id="icon-dimian" viewBox="0 0 32 32">
<title>dimian</title>
<path fill="none" stroke="#c6c6c6" stroke-width="1" stroke-miterlimit="10" stroke-linecap="round" stroke-linejoin="round" style="stroke: var(--color1, #c6c6c6)" d="M19.822 9.852h11.178v5.732h-11.178v-5.732z"></path>
<path fill="none" stroke="#c6c6c6" stroke-width="1" stroke-miterlimit="10" stroke-linecap="round" stroke-linejoin="round" style="stroke: var(--color1, #c6c6c6)" d="M1 15.584v-5.732h4.724v5.732h-4.724z"></path>
<path fill="none" stroke="#c6c6c6" stroke-width="1" stroke-miterlimit="10" stroke-linecap="round" stroke-linejoin="round" style="stroke: var(--color1, #c6c6c6)" d="M7.050 23.968h11.446v5.734h-11.446v-5.734z"></path>
<path fill="none" stroke="#c6c6c6" stroke-width="1" stroke-miterlimit="10" stroke-linecap="round" stroke-linejoin="round" style="stroke: var(--color1, #c6c6c6)" d="M1 16.91h9.852v5.732h-9.852v-5.732z"></path>
<path fill="none" stroke="#c6c6c6" stroke-width="1" stroke-miterlimit="10" stroke-linecap="round" stroke-linejoin="round" style="stroke: var(--color1, #c6c6c6)" d="M7.050 15.584v-5.732h11.446v5.732h-11.446z"></path>
<path fill="none" stroke="#c6c6c6" stroke-width="1" stroke-miterlimit="10" stroke-linecap="round" stroke-linejoin="round" style="stroke: var(--color1, #c6c6c6)" d="M12.178 2.792h9.85v5.732h-9.85v-5.732z"></path>
<path fill="none" stroke="#c6c6c6" stroke-width="1" stroke-miterlimit="10" stroke-linecap="round" stroke-linejoin="round" style="stroke: var(--color1, #c6c6c6)" d="M1 2.792h9.852v5.732h-9.852v-5.732z"></path>
<path fill="none" stroke="#c6c6c6" stroke-width="1" stroke-miterlimit="10" stroke-linecap="round" stroke-linejoin="round" style="stroke: var(--color1, #c6c6c6)" d="M1 23.968h4.724v5.734h-4.724v-5.734z"></path>
<path fill="none" stroke="#c6c6c6" stroke-width="1" stroke-miterlimit="10" stroke-linecap="round" stroke-linejoin="round" style="stroke: var(--color1, #c6c6c6)" d="M19.822 23.968h11.178v5.734h-11.178v-5.734z"></path>
<path fill="none" stroke="#c6c6c6" stroke-width="1" stroke-miterlimit="10" stroke-linecap="round" stroke-linejoin="round" style="stroke: var(--color1, #c6c6c6)" d="M12.178 16.91h9.85v5.732h-9.85v-5.732z"></path>
</symbol>
<symbol id="icon-fangshui" viewBox="0 0 32 32">
<title>fangshui</title>
<path fill="none" stroke="#c6c6c6" stroke-width="1" stroke-miterlimit="10" stroke-linecap="round" stroke-linejoin="round" style="stroke: var(--color1, #c6c6c6)" d="M23.86 15.25l-8.438-14.25-8.438 14.062c-1.124 1.688-1.874 3.75-1.874 5.814 0 5.626 4.688 10.126 10.312 10.126s10.312-4.5 10.312-9.938c0-2.252-0.748-4.128-1.874-5.814zM21.984 26.312c-0.748 0.75-1.686 1.312-2.438 1.312-0.564 0-0.938-0.376-0.938-0.938s0.374-0.942 0.752-0.942c0.938-0.372 1.876-1.122 2.060-2.058 0-0.376 0.562-0.75 0.938-0.75 0.564 0 0.938 0.376 0.938 0.934 0 0.756-0.564 1.692-1.312 2.442z"></path>
</symbol>
<symbol id="icon-dianli" viewBox="0 0 32 32">
<title>dianli</title>
<path fill="none" stroke="#c6c6c6" stroke-width="1" stroke-miterlimit="10" stroke-linecap="round" stroke-linejoin="round" style="stroke: var(--color1, #c6c6c6)" d="M27.504 14.056l0.002 0.004-15.866 16.44c-0.26 0.402-0.718 0.672-1.238 0.672-0.814 0-1.474-0.648-1.474-1.446 0-0.040 0.008-0.070 0.010-0.11l-0.010-0.004 0.016-0.042c0.028-0.23 0.1-0.442 0.222-0.628l3.388-9.55h-6.57l-0.010-0.020c-0.070 0.016-0.142 0.020-0.216 0.020-0.626 0-1.134-0.5-1.134-1.11 0-0.364 0.178-0.682 0.456-0.886l-0.004-0.002 13.598-15.558c0.26-0.4 0.716-0.666 1.238-0.666 0.816 0 1.474 0.648 1.474 1.444 0 0.040-0.012 0.072-0.012 0.108l0.012 0.004-0.022 0.098c-0.008 0.062-0.022 0.122-0.038 0.176l-1.974 9.060h7.246l0.012 0.020c0.068-0.014 0.142-0.020 0.214-0.020 0.626 0 1.134 0.498 1.134 1.112 0 0.362-0.178 0.682-0.454 0.884v0zM27.504 14.056"></path>
</symbol>
<symbol id="icon-guanchai" viewBox="0 0 32 32">
<title>guanchai</title>
<path fill="none" stroke="#c6c6c6" stroke-width="1" stroke-miterlimit="10" stroke-linecap="round" stroke-linejoin="round" style="stroke: var(--color1, #c6c6c6)" d="M22.262 13.588c-0.852 2.83-2.836 4.728-4.426 4.248l7.13 2.154c-1.586-0.484-2.184-3.158-1.328-5.986 0.852-2.82 2.82-4.718 4.406-4.25l-7.106-2.146c1.582 0.486 2.176 3.164 1.324 5.98v0z"></path>
<path fill="none" stroke="#c6c6c6" stroke-width="1" stroke-miterlimit="10" stroke-linecap="round" stroke-linejoin="round" style="stroke: var(--color1, #c6c6c6)" d="M4.452 25.904l12.312 3.716c-1.59-0.48-2.186-3.156-1.334-5.984 0.852-2.826 2.83-4.726 4.42-4.248 0 0-11.914-3.614-11.99-3.636-2.832-0.856-5.828 0.748-6.684 3.582-0.822 2.732 0.64 5.6 3.276 6.57v0z"></path>
<path fill="none" stroke="#c6c6c6" stroke-width="1" stroke-miterlimit="10" stroke-linecap="round" stroke-linejoin="round" style="stroke: var(--color1, #c6c6c6)" d="M4.314 13.764l11.458 3.458c-1.59-0.48-2.186-3.16-1.334-5.986 0.85-2.828 2.832-4.728 4.422-4.248 0 0-11.062-3.354-11.14-3.38-2.836-0.854-5.826 0.75-6.682 3.586-0.824 2.728 0.638 5.598 3.276 6.57v0z"></path>
<path fill="none" stroke="#c6c6c6" stroke-width="1" stroke-miterlimit="10" stroke-linecap="round" stroke-linejoin="round" style="stroke: var(--color1, #c6c6c6)" d="M20.726 19.638c-1.622-0.492-3.626 1.406-4.48 4.236s-0.232 5.524 1.392 6.014c1.616 0.486 3.624-1.41 4.484-4.24 0.85-2.828 0.23-5.522-1.396-6.010zM21.040 25.322c-0.542 1.792-1.808 2.988-2.836 2.676-1.022-0.306-1.414-2.010-0.874-3.796 0.538-1.788 1.802-2.984 2.83-2.678 1.024 0.308 1.414 2.008 0.88 3.798z"></path>
<path fill="none" stroke="#c6c6c6" stroke-width="1" stroke-miterlimit="10" stroke-linecap="round" stroke-linejoin="round" style="stroke: var(--color1, #c6c6c6)" d="M16.788 17.53c1.618 0.49 3.63-1.408 4.482-4.236 0.856-2.828 0.234-5.52-1.386-6.010-1.622-0.492-3.628 1.408-4.48 4.236-0.858 2.83-0.238 5.522 1.384 6.010zM16.482 11.846c0.538-1.788 1.808-2.988 2.83-2.68 1.028 0.31 1.422 2.008 0.878 3.8-0.538 1.788-1.808 2.99-2.83 2.68-1.026-0.31-1.42-2.014-0.878-3.8z"></path>
<path fill="none" stroke="#c6c6c6" stroke-width="1" stroke-miterlimit="10" stroke-linecap="round" stroke-linejoin="round" style="stroke: var(--color1, #c6c6c6)" d="M29.036 10.044c-1.626-0.488-3.632 1.41-4.48 4.238-0.856 2.832-0.234 5.522 1.386 6.012 1.626 0.488 3.628-1.41 4.484-4.238 0.852-2.832 0.234-5.52-1.39-6.012zM29.282 15.708c-0.524 1.73-1.746 2.89-2.738 2.588-0.992-0.3-1.372-1.942-0.848-3.672 0.524-1.724 1.75-2.886 2.742-2.586 0.992 0.298 1.366 1.942 0.844 3.67z"></path>
</symbol>
<symbol id="icon-xiaofang" viewBox="0 0 32 32">
<title>xiaofang</title>
<path fill="none" stroke="#c6c6c6" stroke-width="1" stroke-miterlimit="10" stroke-linecap="round" stroke-linejoin="round" style="stroke: var(--color1, #c6c6c6)" d="M15.716 12.666c0.656 0 1.19-0.538 1.19-1.202 0-0.662-0.532-1.2-1.19-1.2-0.65 0-1.184 0.538-1.184 1.2 0.002 0.664 0.534 1.202 1.184 1.202v0zM15.716 12.666"></path>
<path fill="none" stroke="#c6c6c6" stroke-width="1" stroke-miterlimit="10" stroke-linecap="round" stroke-linejoin="round" style="stroke: var(--color1, #c6c6c6)" d="M11.976 6.746h7.682c0.008 0 0.014-0.002 0.018-0.002 0.22-0.018 0.22-0.208 0.22-0.518 0-1.732-1.046-3.24-2.582-3.852 0.004-0.034 0.004-0.070 0.004-0.104 0-0.812-0.65-1.47-1.444-1.47h-0.024c-0.008 0-0.018 0.002-0.028 0.002-0.77 0.032-1.388 0.678-1.388 1.476 0 0.018 0 0.040 0.002 0.058-1.578 0.588-2.694 2.144-2.694 3.898 0 0.298 0 0.512 0.234 0.512v0zM11.976 6.746"></path>
<path fill="none" stroke="#c6c6c6" stroke-width="1" stroke-miterlimit="10" stroke-linecap="round" stroke-linejoin="round" style="stroke: var(--color1, #c6c6c6)" d="M22.84 14.16c1.4 0 2.536-1.142 2.536-2.542 0-1.404-1.14-2.544-2.544-2.544-0.172 0-0.41 0-0.41 0.246v4.596c-0.002 0.244 0.232 0.244 0.418 0.244v0zM22.84 14.16"></path>
<path fill="none" stroke="#c6c6c6" stroke-width="1" stroke-miterlimit="10" stroke-linecap="round" stroke-linejoin="round" style="stroke: var(--color1, #c6c6c6)" d="M9.052 14.16c0.19 0 0.248-0.148 0.254-0.226 0.002-0.038-0.006-0.094-0.040-0.144v-4.418c0.010-0.034 0.010-0.072 0.004-0.11-0.008-0.044-0.056-0.19-0.26-0.19-1.36 0-2.386 1.094-2.386 2.544 0.002 1.426 1.066 2.544 2.428 2.544v0zM9.052 14.16"></path>
<path fill="none" stroke="#c6c6c6" stroke-width="1" stroke-miterlimit="10" stroke-linecap="round" stroke-linejoin="round" style="stroke: var(--color1, #c6c6c6)" d="M23.998 28.014h-3.958v-13.788h0.364v0.606c0 0.13 0.106 0.238 0.234 0.238h0.834c0.13 0 0.234-0.108 0.234-0.238v-6.33c0-0.13-0.104-0.238-0.234-0.238h-0.834c-0.128 0-0.234 0.108-0.234 0.238v0.606h-0.364v-1.448c0-0.13-0.106-0.236-0.234-0.236h-7.926c-0.128 0-0.236 0.106-0.236 0.236v1.45h-0.36v-0.608c0-0.13-0.108-0.238-0.236-0.238h-0.834c-0.128 0-0.234 0.108-0.234 0.238v6.33c0 0.13 0.106 0.238 0.234 0.238h0.834c0.128 0 0.236-0.108 0.236-0.238v-0.606h0.362v13.788h-3.084c-0.762 0-1.378 0.624-1.378 1.392s0.616 1.394 1.378 1.394h15.436c0.762 0 1.376-0.626 1.376-1.394 0.002-0.77-0.614-1.392-1.376-1.392v0zM15.716 9.412c1.122 0 2.034 0.92 2.034 2.054s-0.912 2.056-2.034 2.056c-1.116 0-2.026-0.922-2.026-2.056s0.91-2.054 2.026-2.054v0zM15.716 9.412"></path>
</symbol>
<symbol id="icon-kongtiao" viewBox="0 0 32 32">
<title>kongtiao</title>
<path fill="none" stroke="#c6c6c6" stroke-width="1" stroke-miterlimit="10" stroke-linecap="round" stroke-linejoin="round" style="stroke: var(--color1, #c6c6c6)" d="M25.592 21.958c-0.094 0.132-0.098 0.286-0.106 0.436-0.012 0.278 0.036 0.548 0.104 0.816 0.056 0.228 0.116 0.458 0.148 0.688 0.034 0.238 0.008 0.476-0.088 0.704-0.134 0.318-0.36 0.55-0.65 0.726-0.048 0.030-0.106 0.046-0.184 0.080 0.038-0.116 0.064-0.208 0.1-0.294 0.134-0.364 0.168-0.728 0.054-1.106-0.086-0.292-0.138-0.584-0.118-0.888 0.032-0.424 0.164-0.802 0.512-1.074 0.060-0.050 0.136-0.076 0.206-0.114 0.008 0.010 0.016 0.020 0.022 0.026v0zM25.592 21.958"></path>
<path fill="none" stroke="#c6c6c6" stroke-width="1" stroke-miterlimit="10" stroke-linecap="round" stroke-linejoin="round" style="stroke: var(--color1, #c6c6c6)" d="M6.056 21.948c-0.092 0.13-0.096 0.284-0.104 0.434-0.012 0.28 0.036 0.548 0.102 0.816 0.056 0.228 0.116 0.458 0.148 0.69 0.034 0.238 0.008 0.474-0.088 0.704-0.134 0.318-0.358 0.548-0.65 0.724-0.050 0.030-0.106 0.046-0.184 0.080 0.040-0.116 0.066-0.208 0.1-0.296 0.136-0.362 0.168-0.728 0.056-1.106-0.086-0.29-0.14-0.584-0.118-0.888 0.030-0.422 0.164-0.8 0.51-1.074 0.060-0.048 0.136-0.074 0.208-0.112 0.008 0.010 0.016 0.018 0.020 0.028v0zM6.056 21.948"></path>
<path fill="none" stroke="#c6c6c6" stroke-width="1" stroke-miterlimit="10" stroke-linecap="round" stroke-linejoin="round" style="stroke: var(--color1, #c6c6c6)" d="M22.806 21.94c-0.134 0.23-0.138 0.47-0.118 0.706 0.018 0.212 0.074 0.422 0.116 0.632 0.050 0.264 0.124 0.526 0.15 0.792 0.026 0.238-0.056 0.47-0.174 0.684-0.154 0.282-0.388 0.478-0.668 0.626-0.018 0.010-0.040 0.014-0.058 0.020-0.004 0.002-0.010-0.002-0.028-0.008 0.030-0.096 0.054-0.196 0.092-0.29 0.142-0.356 0.154-0.712 0.060-1.082-0.072-0.282-0.15-0.564-0.126-0.862 0.026-0.372 0.12-0.718 0.384-0.996 0.092-0.102 0.198-0.198 0.37-0.222v0zM22.806 21.94"></path>
<path fill="none" stroke="#c6c6c6" stroke-width="1" stroke-miterlimit="10" stroke-linecap="round" stroke-linejoin="round" style="stroke: var(--color1, #c6c6c6)" d="M20.006 21.938c-0.126 0.226-0.134 0.458-0.116 0.682 0.020 0.212 0.070 0.422 0.112 0.63 0.058 0.292 0.162 0.572 0.154 0.874-0.006 0.336-0.132 0.626-0.356 0.882-0.132 0.152-0.292 0.272-0.468 0.362-0.028 0.014-0.054 0.022-0.108 0.046 0.038-0.116 0.060-0.204 0.094-0.292 0.144-0.364 0.162-0.734 0.060-1.114-0.070-0.268-0.148-0.536-0.13-0.816 0.026-0.336 0.094-0.664 0.306-0.938 0.11-0.134 0.234-0.272 0.452-0.316v0zM20.006 21.938"></path>
<path fill="none" stroke="#c6c6c6" stroke-width="1" stroke-miterlimit="10" stroke-linecap="round" stroke-linejoin="round" style="stroke: var(--color1, #c6c6c6)" d="M30.742 13.406v1.812c-0.006 0.008-0.016 0.012-0.016 0.018-0.016 0.166-0.030 0.328-0.042 0.492-0.010 0.104-0.010 0.21-0.018 0.318-0.012 0.176-0.024 0.352-0.042 0.526-0.026 0.234-0.056 0.466-0.090 0.7-0.036 0.254-0.062 0.51-0.116 0.76-0.072 0.348-0.156 0.696-0.25 1.038-0.124 0.454-0.276 0.896-0.564 1.276-0.138 0.18-0.304 0.308-0.552 0.294-0.192-0.012-0.384-0.002-0.578-0.002-0.126 0-0.126-0.002-0.126-0.128 0-0.61 0-1.218 0-1.83 0-0.156-0.012-0.168-0.168-0.168-8.284 0-16.566 0-24.85 0-0.154 0-0.16 0.006-0.16 0.16 0 0.608 0 1.212 0 1.822 0 0.144 0 0.144-0.148 0.144-0.22 0-0.44 0.006-0.66-0.004-0.088-0.004-0.192-0.030-0.262-0.080-0.1-0.074-0.188-0.174-0.264-0.274-0.19-0.254-0.312-0.546-0.414-0.844-0.216-0.63-0.356-1.282-0.442-1.94-0.056-0.438-0.098-0.876-0.144-1.316-0.012-0.096-0.010-0.194-0.020-0.292-0.024-0.224-0.070-0.448-0.054-0.68 0-0.020-0.012-0.042-0.020-0.064v-1.702c0.008-0.018 0.018-0.036 0.020-0.054 0.014-0.152 0.004-0.302 0.030-0.456 0.048-0.316 0.052-0.64 0.084-0.958 0.030-0.318 0.062-0.632 0.11-0.946 0.050-0.312 0.116-0.622 0.18-0.932 0.116-0.546 0.272-1.080 0.536-1.574 0.132-0.25 0.314-0.454 0.56-0.594h26.96c0.106 0.080 0.234 0.144 0.318 0.246 0.126 0.15 0.232 0.316 0.318 0.492 0.188 0.372 0.314 0.766 0.402 1.17 0.108 0.498 0.196 1 0.276 1.5 0.052 0.342 0.076 0.688 0.114 1.036 0.010 0.102 0.012 0.206 0.022 0.308 0.016 0.176 0.034 0.35 0.050 0.526 0.004 0.066 0.012 0.132 0.020 0.2v0zM15.75 17c4.148 0 8.296 0 12.444-0.002 0.12 0 0.24-0.030 0.36-0.056 0.3-0.070 0.534-0.256 0.74-0.48 0.182-0.2 0.282-0.444 0.296-0.712 0.038-0.578-0.328-1.046-0.816-1.272-0.262-0.124-0.544-0.164-0.834-0.164-7.862 0-15.72 0-23.58 0.004-0.394 0-0.792-0.030-1.186 0.030-0.32 0.046-0.596 0.176-0.836 0.378-0.174 0.148-0.284 0.346-0.368 0.56-0.078 0.2-0.092 0.406-0.048 0.604 0.078 0.336 0.256 0.62 0.55 0.824 0.254 0.176 0.532 0.284 0.84 0.284 4.146 0.002 8.292 0.002 12.438 0.002v0zM15.75 17"></path>
<path fill="none" stroke="#c6c6c6" stroke-width="1" stroke-miterlimit="10" stroke-linecap="round" stroke-linejoin="round" style="stroke: var(--color1, #c6c6c6)" d="M15.76 20.636h-11.894c-0.154 0-0.154 0-0.154-0.148 0-0.436 0-0.874 0-1.31 0-0.12 0.008-0.126 0.124-0.126 0.024 0 0.050 0 0.074 0h23.69c0.21 0 0.21 0 0.21 0.208 0 0.412 0 0.824 0 1.234 0 0.142 0 0.142-0.142 0.142-3.972 0-7.94 0-11.908 0v0zM15.76 20.636"></path>
<path fill="none" stroke="#c6c6c6" stroke-width="1" stroke-miterlimit="10" stroke-linecap="round" stroke-linejoin="round" style="stroke: var(--color1, #c6c6c6)" d="M8.816 21.958c-0.126 0.208-0.13 0.442-0.11 0.674 0.022 0.208 0.076 0.414 0.114 0.624 0.054 0.288 0.166 0.566 0.154 0.864-0.012 0.33-0.126 0.626-0.35 0.876-0.14 0.154-0.296 0.286-0.486 0.376-0.020 0.010-0.038 0.018-0.058 0.026-0.008 0.002-0.018 0-0.036-0.002 0.030-0.096 0.058-0.19 0.092-0.28 0.17-0.432 0.14-0.86 0.010-1.292-0.092-0.306-0.102-0.62-0.042-0.936 0.068-0.35 0.214-0.648 0.508-0.862 0.054-0.040 0.118-0.062 0.178-0.094 0.010 0.010 0.018 0.018 0.026 0.026v0zM8.816 21.958"></path>
<path fill="none" stroke="#c6c6c6" stroke-width="1" stroke-miterlimit="10" stroke-linecap="round" stroke-linejoin="round" style="stroke: var(--color1, #c6c6c6)" d="M11.618 21.946c-0.11 0.182-0.126 0.366-0.11 0.548 0.020 0.234 0.052 0.468 0.094 0.702s0.118 0.462 0.154 0.698c0.056 0.372-0.036 0.708-0.258 1.012-0.142 0.194-0.328 0.332-0.53 0.454-0.026 0.016-0.054 0.028-0.082 0.038-0.008 0.004-0.018 0-0.046 0 0.032-0.1 0.066-0.194 0.092-0.292 0.042-0.158 0.094-0.318 0.114-0.48 0.030-0.25-0.010-0.496-0.084-0.736-0.104-0.344-0.126-0.686-0.050-1.042 0.056-0.26 0.154-0.492 0.34-0.684 0.096-0.1 0.192-0.198 0.366-0.218v0zM11.618 21.946"></path>
<path fill="none" stroke="#c6c6c6" stroke-width="1" stroke-miterlimit="10" stroke-linecap="round" stroke-linejoin="round" style="stroke: var(--color1, #c6c6c6)" d="M13.628 25.404c0.058-0.168 0.124-0.32 0.164-0.478 0.070-0.282 0.084-0.564 0.018-0.856-0.062-0.266-0.124-0.53-0.152-0.798-0.016-0.15 0.030-0.308 0.058-0.458 0.062-0.314 0.21-0.58 0.47-0.774 0.058-0.044 0.128-0.072 0.212-0.116-0.032 0.112-0.062 0.196-0.078 0.284-0.042 0.25-0.030 0.504 0.024 0.75 0.060 0.276 0.138 0.548 0.188 0.824 0.050 0.282 0.044 0.56-0.072 0.832-0.16 0.364-0.426 0.616-0.78 0.778-0.010 0.002-0.022 0.004-0.052 0.012v0zM13.628 25.404"></path>
<path fill="none" stroke="#c6c6c6" stroke-width="1" stroke-miterlimit="10" stroke-linecap="round" stroke-linejoin="round" style="stroke: var(--color1, #c6c6c6)" d="M17.188 21.918c-0.032 0.158-0.076 0.28-0.080 0.404-0.008 0.19-0.006 0.382 0.026 0.568 0.050 0.298 0.132 0.594 0.194 0.894 0.090 0.438-0.006 0.834-0.292 1.184-0.144 0.176-0.316 0.31-0.52 0.404-0.020 0.010-0.038 0.016-0.058 0.024-0.004 0.002-0.012-0.002-0.026-0.008 0.032-0.098 0.058-0.2 0.096-0.294 0.106-0.26 0.146-0.528 0.104-0.802-0.034-0.206-0.084-0.408-0.132-0.612-0.062-0.27-0.050-0.536-0.004-0.804 0.052-0.3 0.174-0.562 0.4-0.766 0.084-0.072 0.186-0.122 0.292-0.192v0zM17.188 21.918"></path>
</symbol>
<symbol id="icon-chufang" viewBox="0 0 32 32">
<title>chufang</title>
<path fill="none" stroke="#c6c6c6" stroke-width="1" stroke-miterlimit="10" stroke-linecap="round" stroke-linejoin="round" style="stroke: var(--color1, #c6c6c6)" d="M30.79 18.948c-0.010-0.602-0.202-0.87-1.26-0.87h-27.332c-1.102 0-1.31 0.166-1.382 0.87-0.046 0.46-0.024 0.98 0.17 1.198 0.388 0.438 1.264 0.366 2.016-0.314 0.478-0.432 1.342-0.482 1.916-0.46v7.296c0 1.71 1.4 3.114 3.114 3.114h15.57c1.712 0 3.112-1.402 3.112-3.114v-7.3c0.572-0.020 1.422 0.038 1.89 0.462 0.754 0.68 1.626 0.752 2.018 0.314 0.192-0.216 0.178-0.734 0.168-1.196zM7.856 25.41c0 0.392-0.318 0.708-0.71 0.708-0.39 0-0.708-0.316-0.708-0.708v-5.172c0-0.392 0.318-0.708 0.708-0.708 0.392 0 0.71 0.316 0.71 0.708v5.172z"></path>
<path fill="none" stroke="#c6c6c6" stroke-width="1" stroke-miterlimit="10" stroke-linecap="round" stroke-linejoin="round" style="stroke: var(--color1, #c6c6c6)" d="M19.354 8.302l1.056 1.676c2.432-1.53 1.788-2.944 1.114-4.422-0.278-0.604-0.564-1.234-0.204-1.736l-1.614-1.152c-1.026 1.434-0.498 2.594 0.012 3.712 0.31 0.67 0.602 1.312-0.364 1.922z"></path>
<path fill="none" stroke="#c6c6c6" stroke-width="1" stroke-miterlimit="10" stroke-linecap="round" stroke-linejoin="round" style="stroke: var(--color1, #c6c6c6)" d="M14.19 8.302l1.056 1.676c2.434-1.53 1.79-2.944 1.114-4.422-0.276-0.604-0.562-1.234-0.2-1.736l-1.618-1.152c-1.026 1.434-0.496 2.594 0.016 3.712 0.306 0.67 0.598 1.312-0.368 1.922z"></path>
<path fill="none" stroke="#c6c6c6" stroke-width="1" stroke-miterlimit="10" stroke-linecap="round" stroke-linejoin="round" style="stroke: var(--color1, #c6c6c6)" d="M8.712 8.302l1.056 1.676c2.432-1.53 1.788-2.944 1.114-4.422-0.276-0.604-0.562-1.234-0.202-1.736l-1.616-1.152c-1.024 1.434-0.496 2.594 0.016 3.712 0.304 0.67 0.596 1.312-0.368 1.922z"></path>
<path fill="none" stroke="#c6c6c6" stroke-width="1" stroke-miterlimit="10" stroke-linecap="round" stroke-linejoin="round" style="stroke: var(--color1, #c6c6c6)" d="M23.602 13.916h-6.862l0.436-1.744c0.116-0.466-0.394-0.876-0.876-0.876h-1.216c-0.482 0-0.992 0.408-0.876 0.876l0.436 1.744h-6.612c-1.582 0-2.898 1.194-3.090 2.726h21.75c-0.194-1.53-1.508-2.726-3.090-2.726z"></path>
</symbol>
<symbol id="icon-shihua" viewBox="0 0 32 32">
<title>shihua</title>
<path fill="none" stroke="#c6c6c6" stroke-width="1" stroke-miterlimit="10" stroke-linecap="round" stroke-linejoin="round" style="stroke: var(--color1, #c6c6c6)" d="M29.528 24.398v-4.616h-1.13v-1.672c0-1.472-1.098-2.692-2.516-2.89v-0.054c0-1.796-1.472-3.27-3.272-3.27h-0.106c-1.798 0-3.27 1.472-3.27 3.27v5.928h-1.6v-6.288c0-0.414-0.216-0.774-0.54-0.97 0.378-0.108 0.666-0.468 0.666-0.88 0-0.502-0.414-0.916-0.918-0.916h-0.734v-0.864h-1.15v0.862h-0.772c-0.504 0-0.916 0.414-0.916 0.916 0 0.414 0.288 0.772 0.666 0.88-0.326 0.198-0.54 0.558-0.54 0.972v6.288h-1.546v-5.804c0-0.306-0.252-0.54-0.54-0.54h-1.112v-5.926c0-1.078-0.88-1.958-1.958-1.958v-0.090c0-1.598-1.294-2.892-2.894-2.892s-2.892 1.292-2.892 2.892v17.624h-1.454v3.718h30v-3.718h-1.472zM20.328 15.146c0-1.204 0.97-2.172 2.176-2.172h0.106c1.206 0 2.176 0.968 2.176 2.172v0.108c-1.296 0.306-2.246 1.474-2.246 2.84v1.672h-1.132v1.29h-1.096l0.016-5.91zM21.426 22.172v2.226h-1.098v-2.226h1.098zM19.234 22.172v2.226h-1.6v-2.226h1.6zM10.738 15.83v5.784c0 0.304 0.25 0.54 0.538 0.54h2.102v2.226h-3.2v-8.55h0.56zM8.222 7.96c0.486 0 0.88 0.396 0.88 0.88v5.91h-0.88v-6.79zM8.222 15.83h0.88v8.57h-0.88v-8.57zM8.222 15.83"></path>
</symbol>
<symbol id="icon-tiyu" viewBox="0 0 32 32">
<title>tiyu</title>
<path fill="none" stroke="#c6c6c6" stroke-width="1" stroke-miterlimit="10" stroke-linecap="round" stroke-linejoin="round" style="stroke: var(--color1, #c6c6c6)" d="M29.488 18.84c0.016-0.356-0.306-0.632-0.534-0.9-0.404-1.626-1.2-3.486-2.356-5.334-1.856-2.96-6.762-7.732-8.626-8.468-0.092-0.038-0.176-0.056-0.252-0.074-0.186-0.604-0.286-1.016-1.010-1.5-1.994-1.328-4.22-1.704-5.694-1.096-1.474 0.61-2.294 3.978-0.708 5.128 1.514 1.104 4.508-1.122 5.466 0.302s2.014 6.166 3.77 9.2c-0.444-0.060-0.9-0.092-1.372-0.092-2.026 0-3.844 0.592-5.13 1.542-1.102-1.72-3.022-2.858-5.21-2.858-2.272 0-4.246 1.226-5.322 3.050v13.448h2.9l0.62-1.102c1.994-0.766 4.352-2.738 5.99-4.84 6.548 2.566 17.322-2.188 17.468-6.406v0z"></path>
</symbol>
<symbol id="icon-yuanling" viewBox="0 0 32 32">
<title>yuanling</title>
<path fill="none" stroke="#c6c6c6" stroke-width="1" stroke-miterlimit="10" stroke-linecap="round" stroke-linejoin="round" style="stroke: var(--color1, #c6c6c6)" d="M25.384 25.376v-6.428h3.216l-2.142-5.358h1.074l-3.216-8.572-2.14 7.5h1.068l-2.578 5.158-1.708-5.158 1.070 1.072-4.284-12.856-3.214 10.714h1.070l-2.142 6.428-2.136-4.482 1.064 0.196-3.214-8.572-2.142 7.5h1.070l-3.214 6.43h3.214v5.358c0 0-4.226 1.86-5.358 3.214 1.788-0.814 3.648-0.63 6.428-1.072-0.836 0.508-1.614 0.6-2.142 1.072-1.174 1.042-3.212 3.212-3.212 3.212h12.856c0 0-4.41-2.030-4.286-3.212 0.074-0.7 1.464-1.634 2.144-2.142 0.662-0.036 1.458 0.010 2.142 0v2.142h2.142v-2.142c5.394 0.18 10.928 0.772 13.928 2.142-0.992-1.194-5.358-2.144-5.358-2.144v0zM14.672 23.232c-2.128 0.048-4.61 0.73-6.428 1.072v-5.356h2.142l-1.072 1.072h5.358v3.212zM23.242 24.304c-1.82-0.412-4.232-0.97-6.428-1.072v-3.212h5.36l-1.074-1.072h2.142v5.356zM23.242 24.304"></path>
</symbol>
<symbol id="icon-jixie" viewBox="0 0 32 32">
<title>jixie</title>
<path fill="none" stroke="#c6c6c6" stroke-width="1" stroke-miterlimit="10" stroke-linecap="round" stroke-linejoin="round" style="stroke: var(--color1, #c6c6c6)" d="M24.336 21.238c-0.398 0-0.746-0.18-1.036-0.536-0.114-0.136-0.23-0.274-0.344-0.41-0.16-0.184-0.324-0.376-0.48-0.574-0.192-0.242-0.152-0.594 0.094-0.79 0.242-0.192 0.594-0.148 0.79 0.094 0.14 0.184 0.292 0.356 0.45 0.542 0.118 0.136 0.242 0.282 0.36 0.43 0.114 0.136 0.148 0.14 0.296 0.094 0.070-0.020 0.136-0.042 0.21-0.066 0.040-0.012 0.074-0.024 0.11-0.040 0.016-0.004 0.032-0.008 0.046-0.012h0.008c0.036-0.012 0.066-0.024 0.102-0.036 0.25-0.082 0.3-0.128 0.308-0.14 0.004-0.004 0.032-0.062 0.040-0.324 0.004-0.066 0.004-0.132 0.008-0.196 0.008-0.308 0.012-0.626 0.058-0.95 0.126-0.96 1.148-1.882 2.102-1.9 0.372-0.008 0.73 0.030 1.082 0.066 0.118 0.010 0.234 0.024 0.352 0.034 0.156 0.014 0.168 0 0.23-0.118 0.090-0.174 0.18-0.356 0.266-0.53l0.046-0.094c0.090-0.18 0.090-0.18-0.046-0.328-0.070-0.074-0.136-0.146-0.208-0.218-0.208-0.214-0.418-0.434-0.61-0.682-0.626-0.796-0.562-2.178 0.132-2.9 0.254-0.266 0.532-0.488 0.8-0.706 0.078-0.062 0.156-0.124 0.23-0.186 0.114-0.092 0.136-0.142 0.14-0.156 0.008-0.032 0-0.098-0.028-0.182-0.050-0.176-0.114-0.364-0.188-0.576-0.066-0.194-0.074-0.208-0.324-0.222-0.058-0.004-0.118-0.006-0.176-0.010-0.406-0.018-0.828-0.038-1.25-0.116-0.852-0.156-1.7-1.158-1.714-2.024-0.004-0.378 0.032-0.75 0.066-1.106 0.012-0.118 0.028-0.246 0.034-0.37 0.012-0.134 0.004-0.14-0.098-0.19-0.222-0.118-0.446-0.228-0.692-0.35-0.118-0.058-0.136-0.060-0.242 0.036-0.086 0.082-0.176 0.164-0.262 0.24-0.188 0.168-0.364 0.326-0.524 0.494-0.348 0.364-0.964 0.562-1.652 0.528-0.676-0.034-1.238-0.276-1.542-0.672-0.152-0.194-0.312-0.38-0.48-0.58-0.106-0.124-0.218-0.256-0.328-0.388-0.078-0.1-0.114-0.096-0.2-0.070-0.192 0.060-0.45 0.142-0.7 0.232-0.15 0.052-0.166 0.064-0.174 0.246-0.004 0.102-0.008 0.208-0.012 0.31-0.010 0.338-0.022 0.686-0.070 1.038-0.12 0.896-1.148 1.824-2.034 1.842-0.398 0.008-0.788-0.030-1.164-0.064-0.11-0.012-0.218-0.022-0.328-0.028-0.154-0.014-0.166 0-0.226 0.118-0.114 0.22-0.228 0.444-0.34 0.672-0.060 0.12-0.064 0.13 0.038 0.242 0.078 0.082 0.158 0.168 0.236 0.25 0.198 0.208 0.402 0.424 0.59 0.662 0.642 0.798 0.592 2.19-0.108 2.926-0.262 0.274-0.55 0.506-0.828 0.73-0.068 0.054-0.138 0.112-0.206 0.166-0.166 0.136-0.164 0.142-0.112 0.306 0.054 0.182 0.12 0.378 0.206 0.624 0.046 0.134 0.078 0.164 0.078 0.164s0.042 0.026 0.202 0.034c0.1 0.004 0.204 0.008 0.306 0.010 0.33 0.012 0.67 0.024 1.014 0.068 0.306 0.042 0.524 0.322 0.482 0.63-0.040 0.308-0.322 0.524-0.63 0.484-0.29-0.038-0.588-0.048-0.906-0.060-0.106-0.004-0.21-0.008-0.318-0.012-0.674-0.030-1.072-0.322-1.29-0.948-0.092-0.26-0.162-0.472-0.22-0.67-0.186-0.612-0.038-1.076 0.476-1.498 0.072-0.058 0.142-0.116 0.212-0.172 0.262-0.212 0.51-0.412 0.722-0.634 0.308-0.32 0.332-1.090 0.046-1.446-0.164-0.2-0.342-0.392-0.534-0.596-0.082-0.086-0.164-0.174-0.244-0.26-0.414-0.452-0.486-0.956-0.218-1.498 0.114-0.232 0.23-0.46 0.346-0.688 0.272-0.532 0.716-0.776 1.32-0.726 0.112 0.010 0.226 0.022 0.338 0.032 0.36 0.036 0.702 0.068 1.036 0.060 0.326-0.008 0.902-0.536 0.946-0.868 0.042-0.298 0.050-0.604 0.062-0.928 0.004-0.106 0.008-0.214 0.012-0.322 0.030-0.634 0.328-1.044 0.922-1.254 0.27-0.098 0.54-0.184 0.742-0.246 0.54-0.166 1.036-0.014 1.402 0.428 0.098 0.126 0.208 0.25 0.312 0.374 0.168 0.198 0.344 0.404 0.512 0.618 0.082 0.106 0.352 0.222 0.71 0.24 0.378 0.018 0.688-0.078 0.782-0.176 0.192-0.204 0.394-0.384 0.59-0.56 0.086-0.078 0.168-0.15 0.25-0.228 0.446-0.41 0.96-0.486 1.5-0.22 0.254 0.126 0.48 0.24 0.714 0.362 0.504 0.262 0.746 0.704 0.7 1.276-0.012 0.132-0.024 0.264-0.036 0.396-0.036 0.342-0.066 0.666-0.058 0.982 0.004 0.334 0.464 0.876 0.792 0.936 0.348 0.064 0.71 0.080 1.098 0.098 0.058 0.002 0.118 0.004 0.18 0.006 0.696 0.036 1.11 0.336 1.332 0.976 0.074 0.224 0.144 0.424 0.2 0.616 0.188 0.614 0.036 1.116-0.472 1.532-0.082 0.066-0.164 0.13-0.242 0.196-0.254 0.204-0.492 0.394-0.696 0.606-0.304 0.318-0.336 1.080-0.058 1.432 0.156 0.204 0.34 0.394 0.536 0.594 0.074 0.078 0.148 0.154 0.218 0.23 0.458 0.49 0.532 0.996 0.234 1.592l-0.050 0.098c-0.086 0.178-0.18 0.362-0.274 0.544-0.274 0.53-0.718 0.772-1.324 0.72-0.122-0.012-0.246-0.026-0.368-0.036-0.332-0.036-0.644-0.066-0.95-0.062-0.39 0.008-0.958 0.528-1.012 0.926-0.036 0.266-0.042 0.54-0.046 0.828 0 0.066-0.004 0.132-0.004 0.2-0.028 0.86-0.296 1.222-1.118 1.496-0.036 0.016-0.070 0.028-0.106 0.036l-0.054 0.020c-0.012 0.004-0.028 0.008-0.042 0.012-0.020 0.008-0.040 0.016-0.058 0.020-0.082 0.028-0.164 0.054-0.25 0.082-0.158 0.048-0.306 0.072-0.45 0.072v0z"></path>
<path fill="none" stroke="#c6c6c6" stroke-width="1" stroke-miterlimit="10" stroke-linecap="round" stroke-linejoin="round" style="stroke: var(--color1, #c6c6c6)" d="M12.276 15.444c-0.302-0.896-0.938-1.614-1.788-2.028-0.464-0.222-0.968-0.336-1.478-0.336-0.408 0-0.82 0.072-1.222 0.216-0.894 0.322-1.624 0.984-2.006 1.82-0.174 0.38-0.278 0.786-0.306 1.202-0.002 0.016-0.004 0.032-0.006 0.050l-0.030 0.19c-0.374 2.296-1.426 4.394-3.046 6.062l-0.14 0.144c-0.012 0.016-0.026 0.028-0.040 0.040-0.318 0.27-0.584 0.594-0.788 0.96-0.448 0.804-0.546 1.786-0.274 2.7 0.272 0.91 0.894 1.676 1.704 2.102 0.836 0.438 1.794 0.52 2.692 0.23 0.9-0.29 1.628-0.91 2.054-1.754 0.216-0.426 0.34-0.882 0.37-1.356 0-0.016 0.002-0.032 0.004-0.050l0.006-0.040c0.18-1.188 0.548-2.34 1.090-3.41 0.542-1.074 1.25-2.050 2.1-2.898 0.272-0.282 0.76-0.84 0.916-1.148 0.424-0.846 0.492-1.804 0.188-2.696zM5.678 26.21c-0.352 0.7-1.208 0.98-1.904 0.628-0.338-0.168-0.59-0.46-0.708-0.82s-0.090-0.746 0.080-1.082c0.17-0.336 0.462-0.59 0.822-0.71 0.146-0.046 0.296-0.070 0.446-0.070 0.218 0 0.436 0.050 0.636 0.152 0.698 0.352 0.98 1.208 0.628 1.902zM10.14 17.354c-0.17 0.336-0.462 0.59-0.82 0.708-0.362 0.122-0.744 0.090-1.082-0.082-0.698-0.35-0.98-1.204-0.628-1.902 0.25-0.494 0.75-0.778 1.268-0.778 0.22 0 0.438 0.050 0.636 0.15 0.336 0.172 0.588 0.462 0.706 0.82 0.118 0.362 0.090 0.746-0.080 1.084z"></path>
<path fill="none" stroke="#c6c6c6" stroke-width="1" stroke-miterlimit="10" stroke-linecap="round" stroke-linejoin="round" style="stroke: var(--color1, #c6c6c6)" d="M25.668 11.482c-0.3-0.894-0.938-1.614-1.786-2.024-0.464-0.226-0.968-0.338-1.48-0.338-0.406 0-0.82 0.072-1.218 0.218-0.894 0.32-1.626 0.984-2.008 1.818-0.172 0.38-0.278 0.784-0.308 1.2 0 0.016 0 0.034-0.004 0.050l-0.032 0.192c-0.372 2.296-1.426 4.392-3.044 6.062l-0.142 0.144c-0.014 0.016-0.026 0.028-0.038 0.040-0.32 0.27-0.584 0.594-0.79 0.96-0.448 0.804-0.548 1.786-0.276 2.7 0.274 0.91 0.894 1.676 1.706 2.102 0.838 0.438 1.794 0.524 2.694 0.23 0.898-0.29 1.628-0.91 2.054-1.754 0.21-0.426 0.336-0.882 0.368-1.356 0-0.016 0.004-0.032 0.004-0.050l0.008-0.036c0.176-1.192 0.546-2.344 1.090-3.414 0.54-1.074 1.25-2.050 2.098-2.898 0.274-0.28 0.762-0.838 0.918-1.15 0.424-0.844 0.49-1.8 0.186-2.696zM19.070 22.254c-0.172 0.336-0.46 0.59-0.82 0.708s-0.746 0.090-1.084-0.082c-0.698-0.352-0.98-1.204-0.626-1.902 0.168-0.338 0.46-0.592 0.82-0.708 0.146-0.050 0.296-0.074 0.444-0.074 0.22 0 0.438 0.050 0.638 0.152 0.34 0.172 0.59 0.464 0.708 0.824 0.12 0.36 0.088 0.742-0.080 1.082zM23.536 13.392c-0.172 0.338-0.46 0.59-0.824 0.708-0.36 0.118-0.742 0.088-1.082-0.082-0.336-0.17-0.59-0.46-0.708-0.82-0.122-0.358-0.090-0.742 0.078-1.080 0.25-0.494 0.75-0.78 1.27-0.78 0.218 0 0.438 0.052 0.636 0.152 0.34 0.17 0.59 0.46 0.708 0.822 0.116 0.358 0.090 0.744-0.078 1.080z"></path>
<path fill="none" stroke="#c6c6c6" stroke-width="1" stroke-miterlimit="10" stroke-linecap="round" stroke-linejoin="round" style="stroke: var(--color1, #c6c6c6)" d="M14.072 23.438c-0.138 0-0.272-0.050-0.376-0.144-0.954-0.856-2.124-1.434-3.384-1.672-0.304-0.054-0.504-0.348-0.448-0.652 0.058-0.304 0.352-0.508 0.656-0.45 1.46 0.274 2.82 0.946 3.926 1.938 0.232 0.208 0.25 0.562 0.042 0.792-0.106 0.122-0.258 0.188-0.416 0.188v0zM14.072 23.438"></path>
</symbol>
<symbol id="icon-qita" viewBox="0 0 32 32">
<title>qita</title>
<path fill="none" stroke="#c6c6c6" stroke-width="1" stroke-miterlimit="10" stroke-linecap="round" stroke-linejoin="round" style="stroke: var(--color1, #c6c6c6)" d="M13.182 2.78h-9.702c-0.726 0-1.32 0.594-1.32 1.32v9.702c0 0.724 0.594 1.32 1.32 1.32h9.702c0.726 0 1.32-0.594 1.32-1.32v-9.702c0-0.726-0.594-1.32-1.32-1.32z"></path>
<path fill="none" stroke="#c6c6c6" stroke-width="1" stroke-miterlimit="10" stroke-linecap="round" stroke-linejoin="round" style="stroke: var(--color1, #c6c6c6)" d="M29.774 8.53l-5.598-5.6c-0.512-0.514-1.356-0.514-1.872 0l-5.598 5.6c-0.512 0.514-0.512 1.354 0 1.868l5.598 5.602c0.516 0.512 1.36 0.512 1.872 0l5.598-5.602c0.516-0.514 0.516-1.354 0-1.868z"></path>
<path fill="none" stroke="#c6c6c6" stroke-width="1" stroke-miterlimit="10" stroke-linecap="round" stroke-linejoin="round" style="stroke: var(--color1, #c6c6c6)" d="M28.282 17.782h-9.7c-0.724 0-1.32 0.592-1.32 1.32v9.7c0 0.726 0.596 1.32 1.32 1.32h9.7c0.726 0 1.32-0.594 1.32-1.32v-9.7c0-0.726-0.594-1.32-1.32-1.32z"></path>
<path fill="none" stroke="#c6c6c6" stroke-width="1" stroke-miterlimit="10" stroke-linecap="round" stroke-linejoin="round" style="stroke: var(--color1, #c6c6c6)" d="M13.182 17.782h-9.702c-0.726 0-1.32 0.592-1.32 1.32v9.7c0 0.726 0.594 1.32 1.32 1.32h9.702c0.726 0 1.32-0.594 1.32-1.32v-9.7c0-0.726-0.594-1.32-1.32-1.32z"></path>
</symbol>
</defs>
</svg>
